HIERARCHY
ROOT hip
{
  OFFSET 0 0 0
  CHANNELS 6 Xposition Yposition Zposition Zrotation Yrotation Xrotation
  JOINT abdomen
  {
    OFFSET 0 20.6881 -0.73152
    CHANNELS 3 Zrotation Xrotation Yrotation
    JOINT chest
    {
      OFFSET 0 11.7043 -0.48768
      CHANNELS 3 Zrotation Xrotation Yrotation
      JOINT neck
      {
        OFFSET 0 22.1894 -2.19456
        CHANNELS 3 Zrotation Xrotation Yrotation
        JOINT head
        {
          OFFSET -0.24384 7.07133 1.2192
          CHANNELS 3 Zrotation Xrotation Yrotation
          JOINT leftEye
          {
            OFFSET 4.14528 8.04674 8.04672
            CHANNELS 3 Zrotation Xrotation Yrotation
            End Site
            {
              OFFSET 1 0 0
            }
          }
          JOINT rightEye
          {
            OFFSET -3.6576 8.04674 8.04672
            CHANNELS 3 Zrotation Xrotation Yrotation
            End Site
            {
              OFFSET 1 0 0
            }
          }
        }
      }
      JOINT rCollar
      {
        OFFSET -2.68224 19.2634 -4.8768
        CHANNELS 3 Zrotation Xrotation Yrotation
        JOINT rShldr
        {
          OFFSET -8.77824 -1.95073 1.46304
          CHANNELS 3 Zrotation Xrotation Yrotation
          JOINT rForeArm
          {
            OFFSET -28.1742 -1.7115 0.48768
            CHANNELS 3 Zrotation Xrotation Yrotation
            JOINT rHand
            {
              OFFSET -22.5879 0.773209 7.07136
              CHANNELS 3 Zrotation Xrotation Yrotation
              JOINT rThumb1
              {
                OFFSET -1.2192 -0.487915 3.41376
                CHANNELS 3 Zrotation Xrotation Yrotation
                JOINT rThumb2
                {
                  OFFSET -3.37035 -0.52449 3.41376
                  CHANNELS 3 Zrotation Xrotation Yrotation
                  End Site
                  {
                    OFFSET -1.78271 -1.18214 1.43049
                  }
                }
              }
              JOINT rIndex1
              {
                OFFSET -7.75947 0.938293 5.60832
                CHANNELS 3 Zrotation Xrotation Yrotation
                JOINT rIndex2
                {
                  OFFSET -2.54057 -0.884171 1.56538
                  CHANNELS 3 Zrotation Xrotation Yrotation
                  End Site
                  {
                    OFFSET -1.62519 -0.234802 1.16502
                  }
                }
              }
              JOINT rMid1
              {
                OFFSET -8.24714 1.18213 3.41376
                CHANNELS 3 Zrotation Xrotation Yrotation
                JOINT rMid2
                {
                  OFFSET -3.10165 -0.590103 1.0647
                  CHANNELS 3 Zrotation Xrotation Yrotation
                  End Site
                  {
                    OFFSET -2.48547 -0.328903 0.83742
                  }
                }
              }
              JOINT rRing1
              {
                OFFSET -8.82822 0.546677 1.51678
                CHANNELS 3 Zrotation Xrotation Yrotation
                JOINT rRing2
                {
                  OFFSET -2.60934 -0.819778 -0.0198488
                  CHANNELS 3 Zrotation Xrotation Yrotation
                  End Site
                  {
                    OFFSET -2.33842 -0.294052 0.168128
                  }
                }
              }
              JOINT rPinky1
              {
                OFFSET -8.27202 -0.0477905 -0.4584
                CHANNELS 3 Zrotation Xrotation Yrotation
                JOINT rPinky2
                {
                  OFFSET -1.82734 -0.647385 -0.700984
                  CHANNELS 3 Zrotation Xrotation Yrotation
                  End Site
                  {
                    OFFSET -1.69225 -0.51767 -0.607171
                  }
                }
              }
            }
          }
        }
      }
      JOINT lCollar
      {
        OFFSET 2.68224 19.2634 -4.8768
        CHANNELS 3 Zrotation Xrotation Yrotation
        JOINT lShldr
        {
          OFFSET 8.77824 -1.95073 1.46304
          CHANNELS 3 Zrotation Xrotation Yrotation
          JOINT lForeArm
          {
            OFFSET 28.1742 -1.7115 0.48768
            CHANNELS 3 Zrotation Xrotation Yrotation
            JOINT lHand
            {
              OFFSET 22.5879 0.773209 7.07136
              CHANNELS 3 Zrotation Xrotation Yrotation
              JOINT lThumb1
              {
                OFFSET 1.2192 -0.487915 3.41376
                CHANNELS 3 Zrotation Xrotation Yrotation
                JOINT lThumb2
                {
                  OFFSET 3.37035 -0.52449 3.41376
                  CHANNELS 3 Zrotation Xrotation Yrotation
                  End Site
                  {
                    OFFSET 1.78271 -1.18214 1.43049
                  }
                }
              }
              JOINT lIndex1
              {
                OFFSET 7.75947 0.938293 5.60832
                CHANNELS 3 Zrotation Xrotation Yrotation
                JOINT lIndex2
                {
                  OFFSET 2.54057 -0.884171 1.56538
                  CHANNELS 3 Zrotation Xrotation Yrotation
                  End Site
                  {
                    OFFSET 1.62519 -0.234802 1.16502
                  }
                }
              }
              JOINT lMid1
              {
                OFFSET 8.24714 1.18213 3.41376
                CHANNELS 3 Zrotation Xrotation Yrotation
                JOINT lMid2
                {
                  OFFSET 3.10165 -0.590103 1.0647
                  CHANNELS 3 Zrotation Xrotation Yrotation
                  End Site
                  {
                    OFFSET 2.48547 -0.328903 0.83742
                  }
                }
              }
              JOINT lRing1
              {
                OFFSET 8.82822 0.546677 1.51678
                CHANNELS 3 Zrotation Xrotation Yrotation
                JOINT lRing2
                {
                  OFFSET 2.60934 -0.819778 -0.0198488
                  CHANNELS 3 Zrotation Xrotation Yrotation
                  End Site
                  {
                    OFFSET 2.33842 -0.294052 0.168128
                  }
                }
              }
              JOINT lPinky1
              {
                OFFSET 8.27202 -0.0477905 -0.4584
                CHANNELS 3 Zrotation Xrotation Yrotation
                JOINT lPinky2
                {
                  OFFSET 1.82734 -0.647385 -0.700984
                  CHANNELS 3 Zrotation Xrotation Yrotation
                  End Site
                  {
                    OFFSET 1.69225 -0.51767 -0.607171
                  }
                }
              }
            }
          }
        }
      }
    }
  }
  JOINT rButtock
  {
    OFFSET -8.77824 4.35084 1.2192
    CHANNELS 3 Zrotation Xrotation Yrotation
    JOINT rThigh
    {
      OFFSET 0 -1.70687 -2.19456
      CHANNELS 3 Zrotation Xrotation Yrotation
      JOINT rShin
      {
        OFFSET 0 -36.8199 0.73152
        CHANNELS 3 Zrotation Xrotation Yrotation
        JOINT rFoot
        {
          OFFSET 0.73152 -45.1104 -5.12064
          CHANNELS 3 Zrotation Xrotation Yrotation
          End Site
          {
            OFFSET -1.1221 -3.69964 12.103
          }
        }
      }
    }
  }
  JOINT lButtock
  {
    OFFSET 8.77824 4.35084 1.2192
    CHANNELS 3 Zrotation Xrotation Yrotation
    JOINT lThigh
    {
      OFFSET 0 -1.70687 -2.19456
      CHANNELS 3 Zrotation Xrotation Yrotation
      JOINT lShin
      {
        OFFSET 0 -36.8199 0.73152
        CHANNELS 3 Zrotation Xrotation Yrotation
        JOINT lFoot
        {
          OFFSET -0.73152 -45.1104 -5.12064
          CHANNELS 3 Zrotation Xrotation Yrotation
          End Site
          {
            OFFSET 1.1221 -3.69964 12.103
          }
        }
      }
    }
  }
}
MOTION
Frames:	9
Frame Time:	0.00833333
0.0 0.0 0.0 0.0 0.0 0.0 0.0 0.0 0.0 0.0 0.0 0.0 0.0 0.0 0.0 0.0 0.0 0.0 0.0 0.0 0.0 0.0 0.0 0.0 0.0 0.0 0.0 0.0 0.0 0.0 0.0 0.0 0.0 0.0 0.0 0.0 0.0 0.0 0.0 0.0 0.0 0.0 0.0 0.0 0.0 0.0 0.0 0.0 0.0 0.0 0.0 0.0 0.0 0.0 0.0 0.0 0.0 0.0 0.0 0.0 0.0 0.0 0.0 0.0 0.0 0.0 0.0 0.0 0.0 0.0 0.0 0.0 0.0 0.0 0.0 0.0 0.0 0.0 0.0 0.0 0.0 0.0 0.0 0.0 0.0 0.0 0.0 0.0 0.0 0.0 0.0 0.0 0.0 0.0 0.0 0.0 0.0 0.0 0.0 0.0 0.0 0.0 0.0 0.0 0.0 0.0 0.0 0.0 0.0 0.0 0.0 0.0 0.0 0.0 0.0 0.0 0.0 0.0 0.0 0.0 0.0 0.0 0.0 0.0 0.0 0.0 0.0 0.0 0.0 0.0 0.0 0.0
9.999999999999999e-05 62.185199999999995 0.059199999999999996 -2.554051 -88.625533 1.76537 -0.172593 3.364448 2.817029 9.5575 2.780781 -60.234571 -7.216857 -4.005357 -125.397321 27.647512 -26.685572 37.030748 53.626223 -3.289205 -6.502617 18.053055 -14.883977 -78.857809 -53.052553 -87.287714 -151.663133 -159.182133 27.550409 168.327356 -3.562003 74.216954 172.067137 -175.356828 51.816514 77.128 6.604053 -15.747749 43.443922 170.679653 10.100471 -89.737981 159.176746 32.358805 -123.377449 -17.50749 35.949208 -82.590854 -47.972836 -1.700677 -113.742946 138.222028 -55.489076 116.892388 92.42775 15.845425 -81.811995 5.281004 -30.757541 -9.379352 30.367012 11.403578 -66.587448 -11.088425 -31.06911 -13.133979 82.695305 -43.19793 -168.574963 169.960024 -40.552758 -171.082634 0.961909 51.521873 -168.922567 -175.624397 22.96018 -110.835045 -13.431301 -25.912338 -13.818745 -163.820976 -63.247589 -103.566981 151.514097 7.029365 -87.692551 82.504087 43.465088 -69.91934 -9.979511 -18.99395 -33.023966 94.577824 77.079228 -60.279414 -94.493275 -11.972359 79.333601 157.619776 -51.836248 -173.267209 46.960819 41.424144 99.055098 156.736199 44.89455 148.393474 17.626258 -47.789202 20.597804 -3.469693 51.815022 -5.012874 -0.91806 -7.410794 -2.48169 68.975174 -22.214904 -99.487239 -2.385045 -50.191681 -2.023921 2.679954 51.91977 -1.847148 5.504382 -1.970842 69.566158 -3.771439 -68.246411 171.983815
-0.0546 68.5737 -1.8005 -0.726673 -34.080485 4.083074 -8.624411 13.740241 3.396013 4.470525 -4.220721 -1.357387 1.449319 17.074703 149.36385 -14.710754 47.76102 177.345089 -38.945905 19.341746 -51.463093 -18.901328 10.787215 -59.124098 -142.047043 -0.668529 163.033283 -40.679611 4.649387 -11.751392 151.657163 20.436028 -124.425211 -21.975303 42.525566 5.570441 -178.053808 -17.430725 43.654124 177.64844 -12.40006 3.694331 8.886561 39.490661 -21.174952 -170.577109 12.676877 39.607408 -136.006833 52.629005 143.858039 -86.170176 -71.373118 -146.847529 29.398063 17.183859 -12.894443 -65.991856 -57.900751 -34.671945 4.307598 -34.691849 -20.106069 -80.658519 61.438556 64.784023 147.446704 15.271613 -151.330607 -123.894393 50.262747 -166.836134 -17.402914 -71.28112 89.536157 -165.642891 -16.899231 -147.589471 162.990733 -1.041032 -94.418955 104.991918 16.881317 -45.478687 109.949787 29.211034 -96.878654 118.984587 84.719746 -120.230784 15.496894 23.089877 2.315572 160.397319 -8.25243 -142.326762 -9.35679 73.169433 12.531418 175.295925 -58.852406 -176.671678 8.459841 60.979648 -22.024897 163.877318 38.599462 133.58688 -87.028314 56.945365 -56.363983 119.170653 11.889135 81.639009 42.81084 38.844419 -108.319056 124.988926 -3.143418 -35.868124 1.401665 -0.306287 -2.973755 36.065802 -18.817885 -133.255931 -19.685778 -57.666916 48.119994 113.63744 -47.043446 -156.025506
-0.6927 70.45169999999999 -2.9558 -1.218689 -22.363654 5.024873 -7.320832 10.756883 -102.759342 5.354335 4.679398 96.753175 1.512832 10.438134 51.802405 -25.645648 -23.708656 -61.227975 -27.465855 17.944986 -65.731916 172.765211 3.310605 -49.131629 -51.610564 65.475401 60.434743 101.753542 -30.414739 74.703056 -29.202501 8.452832 91.04592 9.126487 -42.134339 -4.832601 5.614489 8.818847 7.845792 -69.864309 10.525484 10.973882 -137.79844 41.507442 110.288368 -19.377401 -11.607022 -3.568468 -49.98548 -71.371963 -69.708845 -96.330597 -52.45809 168.734337 -1.865802 -13.53678 -34.803442 -22.093962 -13.95872 35.524541 -133.122315 51.342694 170.521799 70.109529 -18.338507 2.780262 156.609538 -1.670886 -164.602687 64.253633 23.585096 18.947245 -148.190227 -35.760414 136.910169 17.858034 52.71511 -7.515103 5.299636 0.649182 -2.849239 145.505029 -34.670972 -93.392518 -31.322107 -48.202622 2.735686 161.368763 11.311317 -76.958753 108.549887 66.596771 -83.735371 166.909994 -4.835951 -117.787945 20.561876 -9.837623 4.69808 -26.50978 20.389582 -22.203707 -11.766864 -66.977717 -20.489249 54.191134 1.446731 5.55853 9.720106 -7.51148 5.721726 -22.474622 -42.128021 141.851508 48.770962 -51.576106 -151.971132 -141.163519 -31.268401 5.569994 90.741827 56.842828 47.874344 -99.927665 2.67259 93.199927 61.855675 -45.498737 -40.408244 -93.45204 42.739913 -3.264011
-2.0267 69.5604 -3.322 -2.060351 -16.279751 3.874798 -4.80477 12.323179 -168.318647 -1.443015 6.59142 161.331189 7.83871 10.823986 1.098462 -6.343918 -31.14745 6.357813 -175.539785 -2.94802 -66.91115 -36.243159 18.1785 -52.102546 -119.065127 57.024526 122.830286 -83.326429 15.514918 96.98336 -177.556987 -3.132238 -86.502243 -5.507748 -27.643208 -7.515603 -126.271549 28.371812 83.61879 -149.311339 -30.567972 126.867079 -8.574106 12.295955 -13.462636 -165.854826 -1.202073 95.678155 -5.141427 -11.212484 -1.614778 -160.944542 -26.923673 138.99098 -174.403266 12.859528 155.594801 -55.313401 23.994241 27.724229 -126.498321 48.940352 123.087651 -49.367039 54.43178 149.280635 53.417662 -73.991366 73.059235 85.311563 -2.863601 128.478104 168.279011 76.157514 -75.968037 -175.10116 -18.506389 -149.527847 2.295075 -13.998798 6.744583 -6.066546 34.37465 -10.032904 159.629115 -58.388669 -133.781557 -6.852386 18.323127 -18.374206 167.593677 19.24839 -129.352216 164.123908 19.915532 -92.667528 7.062369 48.903258 -11.617168 124.398204 64.167416 -118.611362 128.545772 -13.06759 112.701921 127.876546 17.080842 129.736343 -39.487953 -0.858257 -9.748621 31.022014 -40.222792 28.873942 52.160999 59.884095 -121.039774 -23.212704 -53.838489 51.895138 -163.257525 66.472957 -16.929016 -158.569241 22.572778 140.446808 63.738235 -64.915076 12.891873 -75.437292 -51.060783 -163.212735
-2.7892 71.6326 -4.7633 -1.307174 -11.746714 2.419801 -2.911521 17.895208 5.330773 1.432356 -11.196919 -13.771834 3.688847 12.665105 -6.760521 4.201237 -25.927039 26.199713 20.553808 -10.000272 -51.518129 -8.922496 0.293318 -3.758122 -38.895498 54.238572 43.473308 72.53424 5.106412 29.340372 41.669107 12.408486 102.752784 -26.675653 2.441166 1.668269 -25.093522 33.629401 8.439094 47.320551 -68.403205 21.937944 -135.29457 8.156833 125.11471 -160.093984 -29.452536 132.418283 -117.199381 56.196947 107.439239 14.985791 -29.624779 2.689636 3.315498 -49.8497 8.471818 36.335987 32.653357 -29.906584 177.002586 -6.49909 166.484102 129.030106 -37.459504 147.500141 155.135084 -35.550569 -179.618237 62.314369 -4.742315 68.192125 -27.901471 78.437425 124.382832 -174.456232 -10.050835 -148.110609 9.124689 2.25779 11.08861 -41.709895 -17.453054 12.987388 38.902346 36.26931 -27.601273 -19.300062 4.277727 -4.526457 10.593376 -10.067083 -3.472131 115.120872 56.521787 -139.471255 5.841127 2.65814 -0.838219 140.666396 3.957702 -166.128391 -2.449723 36.055539 18.882144 8.190476 -82.464479 5.972546 2.386329 12.814551 7.575606 -32.768482 -50.683494 -19.185562 37.83196 77.964264 165.131921 94.366389 -17.86581 169.718596 -13.952332 8.252631 -25.980937 56.028239 -21.630511 -169.387256 60.782017 -45.109346 136.772278 -174.099874 22.906547 -126.8811
-2.4923 71.6731 -6.0747 -0.759975 -8.676913 2.129381 -1.73027 12.048667 175.117778 -3.31587 5.890208 174.618342 -3.519426 13.60269 1.571216 9.631141 -23.384616 23.29859 7.777765 -0.798977 -11.712651 4.774859 1.030101 24.33514 38.731505 -74.758524 20.384375 132.076424 14.008366 -133.193006 166.556888 38.573215 48.780899 -133.391933 36.038072 115.965695 -176.457698 -15.87095 100.404292 -2.601382 -51.836143 -8.674001 -150.11588 -24.415862 121.314389 169.750898 -50.394154 100.064801 -168.151493 -36.506713 151.335268 -28.659542 64.320362 21.179962 6.553061 -12.552232 9.541025 21.146292 29.920526 3.951385 17.296029 -45.643198 65.296078 37.823136 26.103536 -97.335135 161.545534 -27.318352 -169.397773 -101.64775 18.769573 120.950664 118.403594 82.122866 170.26489 1.659575 19.131013 -2.80898 -0.831621 -1.798864 12.492485 -145.400905 -87.276725 -64.4207 138.419429 14.969549 -110.993223 -14.72502 -34.181424 0.026934 5.706763 -5.296887 0.182689 -173.018458 -74.986405 -124.741763 151.970927 41.852562 -161.153515 179.73743 15.24903 -164.108303 148.17083 43.718033 175.495405 -8.398209 -23.422657 -23.874367 -1.165324 14.338308 -6.870968 -10.301746 -62.152857 179.587333 -3.334628 -84.328324 48.227975 68.112796 -40.871862 148.45904 115.472475 53.953627 57.666823 -119.838677 25.381578 145.047388 40.57992 -66.944943 -38.601604 -28.63221 9.545116 -84.641608
-1.7662 72.16080000000001 -6.458899999999999 -1.289948 -6.647498 2.816179 -0.149432 10.490864 -167.988076 -1.439432 5.666801 157.664711 -0.347121 32.35899 172.437416 -17.736148 41.268132 -140.879364 3.24779 -0.457602 -16.035797 11.454046 2.799812 27.389062 -149.708691 10.857049 147.793513 -128.430476 18.153196 81.197977 -44.450666 -19.996601 179.796964 -165.126427 -25.726526 153.028442 175.034446 -16.306844 94.97905 -91.160515 10.990217 36.517824 18.636842 -11.423284 9.226498 -5.990885 12.4822 -11.501355 -152.642837 28.615755 136.066805 -4.5067 -5.102753 4.320242 -135.874934 17.563607 170.279189 -46.158407 -61.406965 -54.099726 38.801494 -70.287303 55.90879 -146.581703 -20.065457 -60.939398 14.020883 34.624949 -9.731685 101.008456 -18.476283 -100.542201 -3.981288 58.808352 100.901425 -160.27471 -22.150573 -142.983994 5.883023 5.438557 6.869377 -13.28454 -16.607516 11.420083 48.746017 37.642458 -31.51783 -40.728784 -24.076876 -0.583914 165.397315 -4.350092 -137.294598 -178.161899 -17.433039 -131.108799 28.694656 35.068679 -16.465998 129.284815 23.688192 -147.41517 15.26507 18.035689 -30.113947 92.114356 -20.203157 118.885875 -21.997423 14.450937 -18.965346 35.037078 -55.591787 -157.890282 45.589883 -80.550145 123.367069 25.794217 3.690347 90.948103 90.645524 32.547316 50.468061 -90.07557 -1.92877 -2.33116 68.674305 66.277369 60.511843 -48.285124 -13.816133 -130.684648
-1.284 71.9886 -6.0746 -1.864625 -5.440222 3.088765 0.069688 14.452675 0.06077 3.002779 -9.259574 -8.73482 5.269476 14.117852 49.484191 -20.941732 -19.793086 -32.225947 -0.122845 0.020991 -19.393304 13.728944 2.03005 16.744655 48.261778 -83.218209 26.659558 138.981488 -2.205772 -143.734905 29.311605 -19.43795 125.999156 -21.014317 -12.09353 -0.956338 -119.51912 36.996059 65.563891 17.067383 -19.508967 16.955107 41.397564 -33.427447 9.186501 -1.702568 -14.011472 0.975575 -12.85663 12.644897 2.571733 -5.372106 55.324023 15.841591 5.585855 5.922865 -1.002531 -162.979435 -29.52937 155.558939 -116.631203 -58.090371 -115.591569 65.985032 79.365563 -62.166333 57.677608 67.198102 -54.74062 -76.942164 -5.688727 -118.322852 171.973494 -54.172971 -83.859485 -159.232074 -27.593169 -140.359087 145.125018 18.08788 -85.181525 129.207142 -10.692702 -67.052577 -79.84582 -70.224423 -38.819194 8.249367 9.837977 11.725377 4.15226 -1.637009 -14.266984 151.519276 -25.524251 -172.347389 65.10534 64.676566 -59.680123 160.154233 -37.966037 -163.000717 152.062023 -26.140805 130.941209 -150.797493 62.234967 127.870169 1.914793 2.213851 0.352142 -20.443333 -48.111693 7.134148 49.227891 66.410411 -79.794448 139.237732 -9.786589 -4.320754 -154.257006 78.922256 -9.306933 -163.521813 29.569923 2.559665 22.860635 78.651655 31.467779 115.93146 -58.312633 25.389821
